ply
format ascii 1.0
comment PCL generated
element vertex 376
property float x
property float y
property float z
property float nx
property float ny
property float nz
property float curvature
element face 610
property list uchar int vertex_indices
end_header
0.79909 -0.38999 0.62323 -0.98533 0.13378 0.106 0.0038672 
0.80503 -0.38426 0.62851 -0.98533 0.13378 0.106 0.0038672 
0.80503 -0.33193 0.6326 -0.98532 0.13384 0.10593 0.0038556 
0.79456 -0.317 0.63223 -0.98532 0.13384 0.10593 0.0038556 
0.77774 0.019051 0.60802 -0.91072 -0.060396 0.40859 0.00083334 
0.78183 0.077404 0.61247 -0.91083 -0.06041 0.40834 0.00083747 
0.75904 0.40787 0.56762 -0.95814 -0.1484 0.24484 0.028985 
0.76713 0.37962 0.58574 -0.97974 0.013973 0.1998 0.018265 
0.76687 0.33501 0.6009 -0.99416 0.022816 0.10545 0.0017877 
0.76306 0.31782 0.59564 -0.99417 0.022796 0.10542 0.0017881 
0.75784 0.28069 0.59172 -0.97461 0.014801 0.22343 0.0014852 
0.75904 0.25432 0.60212 -0.99558 0.0010747 0.093907 0.0017411 
0.76281 0.24349 0.59385 -0.84699 -0.01766 0.53131 0.0013199 
0.76521 0.23054 0.60683 -0.84751 -0.017698 0.53049 0.001315 
0.76761 0.1819 0.604 -0.92209 -0.071373 0.38034 0.00083101 
0.76418 0.15938 0.59759 -0.89946 -0.073554 0.43077 0.00068973 
0.76582 0.13261 0.59537 -0.91096 -0.060426 0.40804 0.00083663 
0.77487 0.1083 0.60726 -0.91096 -0.060427 0.40804 0.00082427 
0.77585 0.072738 0.59665 -0.91083 -0.06041 0.40834 0.00083747 
0.77651 0.039755 0.59843 -0.91072 -0.060396 0.40859 0.00083334 
0.78226 -0.418 0.60496 -0.98532 0.13384 0.10593 0.0038555 
0.75961 -0.50427 0.50989 -0.98278 0.063056 0.17371 0.0080301 
0.76958 -0.49101 0.53274 -0.97872 0.12661 0.16148 0.0061397 
0.76132 0.39577 0.52593 -0.9157 -0.37568 0.14268 0.021741 
0.75692 0.40722 0.54576 -0.95814 -0.14831 0.24491 0.02899 
0.72242 0.43861 0.50988 -0.785 -0.59133 0.18468 0.0035644 
0.70447 0.45047 0.46219 -0.78628 -0.57777 0.21895 0.0035444 
0.72521 0.4262 0.47342 -0.78343 -0.58919 0.19772 0.0031465 
0.7544 0.40541 0.48535 -0.78493 -0.59144 0.18462 0.0035538 
0.77087 -0.49645 0.48328 -0.83369 0.5225 0.17875 0.0062368 
0.75693 -0.51013 0.48362 -0.83366 0.52255 0.17873 0.0062398 
0.74873 -0.51334 0.45633 -0.83338 0.52303 0.17867 0.0062153 
0.74113 -0.50558 0.4213 -0.7844 0.58502 0.20608 0.0036734 
0.74347 -0.49322 0.41108 -0.82802 0.51624 0.21881 0.0025478 
0.76586 -0.49017 0.44854 -0.83336 0.52306 0.17866 0.0062187 
0.7343 0.39101 0.42755 -0.78628 -0.57778 0.21894 0.0035876 
0.71069 0.43502 0.42657 -0.78789 -0.58333 0.19736 0.0041994 
0.70232 0.45055 0.44926 -0.78631 -0.57774 0.21896 0.0035675 
0.71186 0.41301 0.37816 -0.86173 -0.48576 0.14645 0.00049395 
0.7185 0.39575 0.37811 -0.86197 -0.48195 0.15726 0.00063421 
0.74076 -0.4882 0.37851 -0.86879 0.45406 0.19758 0.001996 
0.73407 -0.50772 0.37019 -0.86879 0.45406 0.19758 0.001996 
0.72006 -0.50712 0.31746 -0.91532 0.382 0.12751 0.0023615 
0.72905 -0.48782 0.32375 -0.91528 0.3821 0.1275 0.0023607 
0.71328 0.39593 0.32281 -0.87034 -0.46651 0.15773 0.00093471 
0.70513 0.41351 0.32943 -0.93422 -0.32157 0.15434 0.0037282 
0.68538 0.45658 0.27502 -0.90797 -0.35337 0.2252 0.0087989 
0.68655 0.42409 0.27928 -0.90794 -0.35346 0.22518 0.008783 
0.69599 0.41886 0.30496 -0.93242 -0.32732 0.15314 0.004279 
0.70351 0.40307 0.29557 -0.92703 -0.30936 0.21194 0.0074221 
0.69738 0.39704 0.25856 -0.90647 -0.33566 0.25621 0.0084272 
0.70461 0.39423 0.27578 -0.92704 -0.30932 0.21194 0.0073831 
0.72092 -0.48727 0.27279 -0.89938 0.41964 0.12252 0.0023808 
0.71324 -0.50739 0.27622 -0.89938 0.41964 0.12252 0.0023808 
0.71375 -0.50826 0.22086 -0.88992 0.4413 0.11528 0.0026217 
0.72363 -0.49095 0.22537 -0.97065 0.19761 0.13706 0.0034707 
0.71672 0.12051 0.20945 -0.91518 -0.010268 0.40292 0.0044672 
0.70064 0.38845 0.2473 -0.90643 -0.33573 0.25626 0.0085273 
0.68647 0.38846 0.22263 -0.89932 -0.31795 0.3002 0.02388 
0.67147 0.42304 0.22246 -0.86703 -0.44019 0.23346 0.021967 
0.6473 0.44144 0.20025 -0.89633 -0.3955 0.20045 0.016148 
0.68335 0.41039 0.17191 -0.94809 -0.23308 0.21634 0.023729 
0.67698 0.32763 0.16586 -0.98328 -0.041866 0.17721 0.0038999 
0.70333 0.16445 0.16138 -0.91117 -0.036798 0.41039 0.003563 
0.70465 0.12128 0.16544 -0.91517 -0.010261 0.40293 0.0044612 
0.71539 0.097911 0.20199 -0.91517 -0.010256 0.40294 0.0044557 
0.71134 0.073228 0.17475 -0.91323 0.010214 0.40732 0.0034787 
0.71877 -0.41233 0.1595 -0.98645 0.080191 0.14311 0.009977 
0.69785 -0.50602 0.16154 -0.97144 0.0981 0.21605 0.0030201 
0.70615 -0.50797 0.18474 -0.98282 0.065438 0.1726 0.0048165 
0.69509 -0.50626 0.12612 -0.9838 0.09433 0.15248 0.0018175 
0.69998 -0.49622 0.15306 -0.97144 0.09814 0.21606 0.003018 
0.69486 -0.47707 0.11958 -0.98379 0.094359 0.15248 0.0018161 
0.69543 -0.43771 0.11538 -0.97769 0.13181 0.16356 0.0067695 
0.70609 -0.41776 0.12999 -0.98263 0.054912 0.17727 0.012362 
0.70555 -0.37675 0.11586 -0.98285 -0.065665 0.17231 0.010876 
0.70035 -0.34757 0.11278 -0.97805 -0.1367 0.15726 0.0017486 
0.68875 -0.26548 0.11019 -0.98854 -0.09425 0.11792 0.00074528 
0.68623 -0.2206 0.11818 -0.99234 -0.07297 0.099722 0.00060121 
0.67992 -0.023056 0.12795 -0.97803 0.033252 0.2058 0.0090446 
0.67609 0.020029 0.11241 -0.97658 0.044839 0.21042 0.0096339 
0.68286 0.075462 0.12498 -0.9352 -0.00075025 0.35411 0.0054566 
0.69817 0.088846 0.15338 -0.91323 0.010226 0.40732 0.0034786 
0.67967 0.11864 0.12549 -0.9305 -0.032311 0.36487 0.0051736 
0.6982 0.12379 0.15496 -0.91516 -0.010262 0.40295 0.0044874 
0.69565 0.17609 0.15456 -0.93615 -0.0551 0.34725 0.0061641 
0.67901 0.18101 0.12637 -0.94663 -0.041484 0.31964 0.0077687 
0.67582 0.21807 0.12498 -0.97071 -0.047334 0.23554 0.007316 
0.67633 0.27629 0.13176 -0.99725 -0.019979 0.071331 0.00087674 
0.68143 0.2916 0.15344 -0.99725 -0.01998 0.071339 0.00087647 
0.6742 0.32969 0.12514 -0.99729 -0.030086 0.067166 0.004074 
0.67191 0.3726 0.1243 -0.99399 -0.049758 0.097557 0.0057314 
0.66544 0.42129 0.12314 -0.98246 -0.17679 0.059348 0.017903 
0.66035 0.41185 0.073142 -0.98083 -0.16195 0.10842 0.0035811 
0.67625 0.37866 0.072884 -0.98733 -0.117 0.10724 0.0048519 
0.67422 0.32395 0.075555 -0.9966 -0.014518 0.081124 0.0015631 
0.67379 0.27512 0.075273 -0.99619 -0.0038241 0.087153 0.00066307 
0.67112 0.2218 0.074593 -0.99148 -0.036739 0.125 0.0042882 
0.67143 0.17482 0.07431 -0.99046 -0.013002 0.13715 0.0049429 
0.67117 0.12623 0.076876 -0.98703 -0.0093301 0.16027 0.0052916 
0.67068 0.075056 0.074644 -0.98692 0.012342 0.16075 0.0058695 
0.67146 0.026358 0.071153 -0.99565 -0.0026516 0.093104 0.001197 
0.67229 -0.023113 0.072134 -0.99711 -0.019854 0.073379 0.00047463 
0.67243 -0.075517 0.075996 -0.99771 -0.01519 0.065913 0.00039202 
0.67562 -0.12613 0.077438 -0.99644 -0.046855 0.07009 0.00028703 
0.67879 -0.17763 0.077809 -0.99459 -0.058876 0.085584 0.0002507 
0.67954 -0.22043 0.076637 -0.9939 -0.05754 0.094034 0.00030379 
0.68318 -0.27595 0.074975 -0.98794 -0.10106 0.1173 0.00073897 
0.68962 -0.32443 0.076359 -0.98047 -0.14599 0.13176 0.00056378 
0.69596 -0.33067 0.10633 -0.98401 -0.12103 0.13071 0.0010412 
0.69475 -0.36676 0.070163 -0.97878 -0.17636 0.10436 0.0020798 
0.70236 -0.38696 0.089283 -0.99984 -0.015768 0.0080159 0.0091671 
0.70452 -0.41835 0.07117 -0.99502 0.093975 0.033168 0.0087356 
0.69629 -0.43694 0.080163 -0.98866 0.14756 0.027766 0.0029536 
0.68899 -0.47543 0.072465 -0.98719 0.14601 0.064272 0.0030776 
0.68915 -0.50281 0.07933 -0.99297 0.060578 0.10165 0.00076653 
0.68759 -0.47689 0.021201 -0.98436 0.13377 0.1146 0.0032868 
0.69664 -0.44197 0.020224 -0.98436 0.11174 0.13623 0.0057849 
0.70378 -0.39444 0.035116 -0.98698 -0.056127 0.1507 0.0074624 
0.69279 -0.37027 0.022285 -0.98227 -0.14144 0.12304 0.0028899 
0.68424 -0.32259 0.022232 -0.98055 -0.16265 0.10987 0.001756 
0.67998 -0.27577 0.02323 -0.9916 -0.077013 0.10395 0.00044431 
0.67724 -0.22331 0.023261 -0.995 -0.035309 0.093374 0.00036043 
0.67544 -0.17551 0.023185 -0.99734 -0.038162 0.062029 0.0002212 
0.67191 -0.12597 0.022145 -0.99777 -0.039034 0.054143 0.00019914 
0.67177 -0.074883 0.021895 -0.99841 -0.023224 0.051423 0.00016103 
0.67158 -0.022466 0.026302 -0.99815 -0.014168 0.059156 0.00027948 
0.67031 0.024501 0.024869 -0.9972 -0.024317 0.070746 0.00028743 
0.66916 0.073824 0.025797 -0.99725 -0.019738 0.071463 0.00041471 
0.66992 0.12521 0.022883 -0.99667 0.0039907 0.081433 0.00043402 
0.66927 0.17505 0.021594 -0.99535 -0.0070555 0.096071 0.00050916 
0.66833 0.22139 0.019041 -0.99472 0.004443 0.1025 0.00034942 
0.66842 0.27968 0.020547 -0.99309 -0.0051199 0.11723 0.00040682 
0.66521 0.32468 0.022003 -0.984 -0.043668 0.17273 0.0027471 
0.6666 0.37478 0.020902 -0.98206 -0.10841 0.15426 0.0045449 
0.65612 0.41754 0.01601 -0.9848 -0.134 0.11048 0.0069343 
0.64784 0.44025 -0.012356 -0.97076 -0.2162 0.10429 0.0048439 
0.65179 0.41924 -0.021779 -0.99099 -0.11527 0.068202 0.0039335 
0.64957 0.39538 -0.013336 -0.99187 -0.11225 0.060014 0.0043522 
0.65793 0.37429 -0.018124 -0.99187 -0.11224 0.060011 0.0043291 
0.66044 0.32362 -0.020999 -0.99222 -0.057524 0.11045 0.0028117 
0.66253 0.27582 -0.017924 -0.99179 -0.02538 0.12532 0.000228 
0.66225 0.22507 -0.020789 -0.99371 -0.0060026 0.11186 0.00034236 
0.66253 0.17566 -0.020089 -0.99451 -0.01638 0.10334 0.0003927 
0.66317 0.12606 -0.022205 -0.9944 -0.016474 0.10435 0.00032159 
0.66338 0.074649 -0.022269 -0.99678 -0.017034 0.078362 0.00034886 
0.66614 0.027185 -0.019278 -0.99686 -0.028197 0.073954 0.00016764 
0.66632 -0.02647 -0.022544 -0.99741 -0.029214 0.065751 0.00018053 
0.66897 -0.075846 -0.024495 -0.99783 -0.024999 0.060932 0.0001492 
0.66985 -0.12519 -0.024209 -0.9983 -0.024191 0.053082 0.00014596 
0.67083 -0.17532 -0.025358 -0.99812 -0.021694 0.057381 0.0003166 
0.67151 -0.22147 -0.024415 -0.99692 -0.027303 0.073496 0.0004354 
0.67222 -0.2722 -0.022598 -0.99317 -0.073813 0.090369 0.00073131 
0.67825 -0.3251 -0.024355 -0.98024 -0.12995 0.14917 0.0022168 
0.68597 -0.36744 -0.013806 -0.98352 -0.07674 0.16369 0.0039606 
0.682 -0.43149 -0.02614 -0.98412 0.023483 0.17592 0.0040416 
0.68149 -0.47733 -0.01863 -0.99108 0.090802 0.097538 0.0025673 
0.6811 -0.5074 0.002961 -0.99055 0.10368 0.089836 0.0023568 
0.67676 -0.52671 -0.020533 -0.99203 0.099054 0.077844 0.0024211 
0.67563 -0.51724 -0.069074 -0.99735 0.051556 0.051413 0.00089448 
0.67842 -0.47833 -0.075651 -0.99833 0.047712 0.032489 0.0002407 
0.68023 -0.42509 -0.076174 -0.99881 0.0050427 0.04848 0.0010687 
0.67472 -0.37043 -0.076059 -0.99651 -0.060651 0.057398 0.00115 
0.67465 -0.32677 -0.072316 -0.9938 -0.08686 0.069406 0.0011865 
0.67101 -0.27341 -0.072165 -0.99741 -0.048409 0.053218 0.00048349 
0.67012 -0.22584 -0.07528 -0.99962 -0.015148 0.023074 4.3653e-05 
0.66969 -0.17356 -0.075525 -0.99933 -0.013762 0.033789 0.00031044 
0.66806 -0.12878 -0.070967 -0.99935 -0.027755 0.022892 0.00012299 
0.66592 -0.068965 -0.073997 -0.999 -0.041717 0.015856 0.00021006 
0.66366 -0.028928 -0.076535 -0.99925 -0.031473 0.022539 0.00027859 
0.66206 0.025326 -0.072309 -0.99923 -0.031255 0.023927 0.00024531 
0.66029 0.075593 -0.079019 -0.99947 -0.026656 0.018632 0.00038807 
0.65975 0.1232 -0.074941 -0.99964 -0.021416 0.016444 0.00068059 
0.65672 0.16913 -0.073178 -0.99848 -0.023796 0.049718 0.00055406 
0.6574 0.22859 -0.071745 -0.99669 -0.034166 0.073731 0.00097153 
0.65523 0.2736 -0.07579 -0.99457 -0.044934 0.093823 0.0008493 
0.65489 0.32777 -0.077914 -0.9969 0.012748 0.077659 0.0020954 
0.65481 0.37435 -0.079471 -0.99971 0.02152 0.01072 0.0021981 
0.65414 0.40739 -0.074166 -0.99788 -0.065022 -0.00050923 0.0011713 
0.65288 0.40287 -0.12125 -0.99919 0.013822 0.037912 0.0014796 
0.65424 0.37624 -0.12274 -0.99939 0.013454 0.032173 0.0012231 
0.65208 0.32958 -0.1275 -0.99909 0.027011 -0.033063 0.0024712 
0.64938 0.32365 -0.11445 -0.99967 0.011785 -0.023038 0.0034189 
0.64983 0.30926 -0.098952 -0.9969 0.01272 0.07766 0.0020527 
0.64965 0.29751 -0.10592 -0.9986 -0.049779 -0.017833 0.0030069 
0.65398 0.27384 -0.12363 -0.9986 -0.049755 -0.017806 0.0030086 
0.65407 0.22707 -0.12209 -0.99884 -0.038694 -0.028751 0.0010656 
0.6586 0.17413 -0.12422 -0.99927 -0.033562 -0.018285 0.00031024 
0.65995 0.12594 -0.12585 -0.99874 -0.028989 -0.040848 0.0003197 
0.66079 0.075451 -0.12496 -0.99919 -0.031539 -0.024995 0.00010083 
0.66275 0.02559 -0.13028 -0.99803 -0.047919 -0.040475 0.00010407 
0.66504 -0.021955 -0.12048 -0.99798 -0.046311 -0.043452 0.00012391 
0.66659 -0.072626 -0.12466 -0.99863 -0.035965 -0.038089 0.00023336 
0.66844 -0.12438 -0.12501 -0.99949 -0.020356 -0.024505 0.0001487 
0.66934 -0.17459 -0.12368 -0.99997 -0.0077698 0.0014932 0.0001508 
0.66861 -0.22417 -0.1266 -0.99985 -0.015558 -0.0070617 0.00024337 
0.66964 -0.27595 -0.1272 -0.99879 -0.044995 -0.019797 0.00050863 
0.67172 -0.31945 -0.12759 -0.99755 -0.064626 -0.026842 0.00053413 
0.67809 -0.37678 -0.12571 -0.99886 -0.04205 -0.022592 0.00091754 
0.67952 -0.42755 -0.12373 -0.99968 0.0035643 -0.025058 0.00066057 
0.6779 -0.47461 -0.1232 -0.99972 0.019537 -0.013118 0.00034291 
0.67645 -0.50363 -0.12334 -0.99886 0.020108 -0.04324 0.0013064 
0.67891 -0.50214 -0.18239 -0.99582 0.022909 -0.088376 0.00091496 
0.67902 -0.47516 -0.1739 -0.99732 0.015478 -0.071506 0.0015792 
0.6805 -0.42681 -0.17283 -0.99558 0.018093 -0.092133 0.00085937 
0.68114 -0.37365 -0.17393 -0.99478 -0.083744 -0.058269 0.002163 
0.67515 -0.32641 -0.17887 -0.99494 -0.098772 -0.018205 0.0028755 
0.67319 -0.27676 -0.17278 -0.99807 -0.043781 -0.044005 0.0014314 
0.66984 -0.22766 -0.17502 -0.99818 -0.025376 -0.054633 0.00020608 
0.67021 -0.17551 -0.17491 -0.99945 -0.011165 -0.031124 0.00035239 
0.66971 -0.12516 -0.17484 -0.99912 -0.01031 -0.040547 5.3738e-05 
0.67041 -0.07202 -0.17401 -0.99849 -0.023838 -0.049474 0.00017996 
0.66912 -0.025381 -0.17685 -0.99782 -0.034497 -0.056272 0.00019306 
0.66549 0.022721 -0.17507 -0.99688 -0.046468 -0.06378 0.00015761 
0.66228 0.075818 -0.17191 -0.99805 -0.025113 -0.05719 0.00025169 
0.66177 0.12579 -0.17196 -0.99797 -0.02305 -0.059388 0.00057665 
0.65962 0.17487 -0.17375 -0.99656 -0.03888 -0.073131 0.00043661 
0.65788 0.22408 -0.17708 -0.99743 -0.045267 -0.0556 0.0006309 
0.65911 0.27505 -0.1747 -0.9971 -0.014682 -0.074739 0.00044791 
0.65808 0.32452 -0.17977 -0.99521 -0.068449 -0.069779 0.0021081 
0.6547 0.37187 -0.17287 -0.99169 -0.12765 0.016304 0.0035069 
0.64905 0.39372 -0.18877 -0.9838 -0.17915 -0.0063013 0.004888 
0.64809 0.40281 -0.18857 -0.9838 -0.17915 -0.0063013 0.004888 
0.65122 0.4029 -0.16401 -0.98383 -0.17902 -0.0062979 0.0049347 
0.65494 0.40294 -0.22984 -0.97707 -0.17911 -0.11515 0.0043919 
0.64775 0.40232 -0.2023 -0.9771 -0.17892 -0.11515 0.004402 
0.64838 0.39358 -0.20515 -0.98982 -0.099385 -0.10192 0.0049512 
0.65843 0.3753 -0.22696 -0.98351 -0.11577 -0.13897 0.0032238 
0.65996 0.32566 -0.22336 -0.99688 -0.036238 -0.070171 0.0025772 
0.65835 0.27458 -0.22063 -0.99871 -0.00028137 -0.050777 0.00027954 
0.66132 0.22758 -0.22637 -0.99811 -0.036606 -0.049318 0.00071621 
0.66703 0.17088 -0.22678 -0.99585 -0.054733 -0.072679 0.00040987 
0.66667 0.12169 -0.22363 -0.99605 -0.024846 -0.085267 0.00026787 
0.66862 0.074739 -0.22781 -0.99633 -0.025451 -0.081696 0.00013406 
0.66815 0.02398 -0.22503 -0.99719 -0.036714 -0.065249 0.00022346 
0.67108 -0.021167 -0.22479 -0.99829 -0.032132 -0.048915 0.00015275 
0.67225 -0.075353 -0.22512 -0.99913 -0.016376 -0.03831 0.00018516 
0.67158 -0.12512 -0.22108 -0.99875 -0.015523 -0.047504 0.0002197 
0.67264 -0.17677 -0.22394 -0.99807 -0.029714 -0.054458 0.0003448 
0.67521 -0.21953 -0.22712 -0.99816 -0.01745 -0.058048 0.00050245 
0.67599 -0.27751 -0.22367 -0.99928 0.014732 -0.035098 0.0010661 
0.67172 -0.32238 -0.22439 -0.99711 -0.075931 -0.0016757 0.0037545 
0.68815 -0.38379 -0.2247 -0.99439 -0.10505 0.012765 0.003169 
0.6871 -0.42236 -0.22493 -0.99871 -0.04755 -0.017571 0.0043206 
0.68844 -0.47611 -0.22542 -0.99769 0.0014317 -0.067938 0.0030582 
0.6875 -0.5028 -0.22226 -0.99694 -0.022527 -0.074856 0.0022384 
0.68887 -0.50297 -0.27596 -0.99896 -0.013477 -0.043612 0.0021994 
0.68897 -0.47929 -0.2787 -0.99927 -0.030494 -0.023156 0.0011557 
0.68167 -0.42377 -0.27638 -0.99728 -0.072485 0.013406 0.0032755 
0.67519 -0.37174 -0.27528 -0.99514 -0.096751 -0.018279 0.0044313 
0.67271 -0.3284 -0.2729 -0.99872 -0.032851 -0.038533 0.0054898 
0.67492 -0.27553 -0.27602 -0.99643 0.024936 -0.080632 0.00091381 
0.67886 -0.22135 -0.27443 -0.99747 -0.032542 -0.063235 0.0007904 
0.67706 -0.17608 -0.2766 -0.99852 -0.022707 -0.049398 0.00054926 
0.67357 -0.12502 -0.28019 -0.99805 -0.011561 -0.061332 0.00035968 
0.67437 -0.074362 -0.27387 -0.99859 -0.0064644 -0.05271 0.0001613 
0.67306 -0.023449 -0.27683 -0.99763 -0.023538 -0.064656 0.00011342 
0.6723 0.022875 -0.27717 -0.99613 -0.0082339 -0.087557 0.00051182 
0.67114 0.07453 -0.27302 -0.99566 -0.0093675 -0.092607 0.00042399 
0.67122 0.1255 -0.27598 -0.99469 -0.062729 -0.08161 0.00074564 
0.66716 0.17308 -0.27283 -0.996 -0.056719 -0.069011 0.00040495 
0.66257 0.22387 -0.27299 -0.99657 -0.048597 -0.066974 0.00058395 
0.66145 0.27516 -0.2761 -0.99817 -0.0085424 -0.059844 0.00050802 
0.66354 0.3194 -0.27035 -0.99853 -0.0064578 -0.053901 0.00057844 
0.66465 0.37554 -0.27418 -0.99439 -0.072687 -0.076803 0.0020373 
0.66004 0.40799 -0.2692 -0.98102 -0.16864 -0.095662 0.0023292 
0.66077 0.40363 -0.33732 -0.99628 -0.0083094 -0.08581 0.0020872 
0.66304 0.37795 -0.32636 -0.99725 -0.016235 -0.072316 0.0020231 
0.66638 0.32644 -0.32214 -0.99473 -0.059692 -0.083337 0.002832 
0.67095 0.17123 -0.32685 -0.99285 -0.10432 -0.057968 0.0009611 
0.67503 0.12439 -0.32628 -0.99601 -0.072202 -0.052371 0.00078856 
0.68033 0.078106 -0.32644 -0.99783 -0.01757 -0.063493 0.0010188 
0.6762 0.023347 -0.32766 -0.99598 0.0060646 -0.089419 0.00055783 
0.67781 -0.023056 -0.32513 -0.99763 -0.0090936 -0.068208 0.00010714 
0.67693 -0.07855 -0.32572 -0.99687 -0.0042922 -0.078947 0.00021471 
0.67653 -0.12289 -0.32594 -0.99548 -0.028406 -0.090655 0.00072746 
0.6774 -0.17779 -0.32456 -0.99596 -0.035873 -0.082299 0.0010419 
0.6806 -0.22175 -0.32464 -0.99791 0.0066049 -0.064327 0.0015576 
0.68497 -0.27304 -0.33285 -0.99083 -0.028035 -0.1322 0.0046898 
0.68164 -0.33027 -0.32735 -0.98325 -0.040979 -0.17759 0.0032802 
0.67989 -0.37502 -0.31423 -0.97803 -0.083299 -0.19111 0.00079436 
0.69005 -0.42493 -0.3289 -0.9855 -0.016235 -0.16889 0.0053456 
0.68915 -0.48061 -0.3287 -0.99567 -0.024615 -0.08964 0.0016893 
0.68847 -0.50099 -0.32218 -0.99567 -0.024639 -0.089654 0.0017163 
0.69574 -0.50314 -0.38818 -0.98777 -0.037739 -0.15128 0.0021773 
0.69156 -0.47267 -0.36895 -0.99287 0.035061 -0.1139 0.0020451 
0.69681 -0.43219 -0.36876 -0.99271 0.053979 -0.10777 0.0035468 
0.70223 -0.41319 -0.38028 -0.99301 0.052871 -0.10549 0.0041712 
0.70467 -0.39285 -0.38942 -0.9993 0.01365 -0.03493 0.0042387 
0.69636 -0.36198 -0.383 -0.97878 -0.054489 -0.19752 0.0038159 
0.68967 -0.32142 -0.37065 -0.97067 -0.080559 -0.22653 0.0038909 
0.68092 -0.26444 -0.37405 -0.98606 -0.084483 -0.14332 0.0046527 
0.68228 -0.22576 -0.3733 -0.99207 -0.048462 -0.11593 0.0045552 
0.68775 -0.17373 -0.37732 -0.98743 0.0084289 -0.1578 0.0019715 
0.68336 -0.12411 -0.37471 -0.98526 -0.030474 -0.16834 0.00066041 
0.68085 -0.075549 -0.37623 -0.989 -0.02677 -0.14549 0.00075518 
0.68019 -0.026925 -0.37405 -0.99177 -0.019329 -0.12654 0.00064511 
0.67909 0.027458 -0.37486 -0.99611 -0.032844 -0.081789 0.0015912 
0.68121 0.07245 -0.37724 -0.99819 -0.030457 -0.051835 0.0013726 
0.67591 0.12253 -0.37771 -0.99503 -0.089673 -0.043276 0.0016472 
0.67141 0.17562 -0.37503 -0.99767 -0.0022394 -0.068216 0.0039618 
0.6655 0.21206 -0.38683 -0.99486 0.00062906 -0.10127 0.0038791 
0.66716 0.32266 -0.37534 -0.99085 -0.050687 -0.12508 0.0026566 
0.66721 0.38066 -0.37341 -0.99336 -0.017922 -0.11366 0.0014518 
0.66869 0.42466 -0.38051 -0.99398 0.0040349 -0.10951 0.0011847 
0.67604 0.40126 -0.41057 -0.99097 0.0015524 -0.13405 0.00093745 
0.67554 0.37682 -0.42903 -0.99097 0.0015622 -0.13407 0.00093497 
0.67592 0.32012 -0.42276 -0.99409 -0.034313 -0.10303 0.003193 
0.67556 0.2725 -0.4156 -0.99123 -0.021298 -0.13045 0.0038716 
0.68286 0.27201 -0.39394 -0.99254 0.0027849 -0.12185 0.0033644 
0.67598 0.23773 -0.41292 -0.98764 -0.0060802 -0.15663 0.0036281 
0.67996 0.17418 -0.42561 -0.98284 -0.056276 -0.17567 0.0012856 
0.67846 0.12413 -0.42174 -0.97974 -0.077953 -0.18448 0.0023319 
0.67954 0.079669 -0.41014 -0.98971 -0.039604 -0.13751 0.0043478 
0.68728 0.024759 -0.42572 -0.9847 -0.02579 -0.17233 0.0015623 
0.68972 -0.026969 -0.4263 -0.98893 -0.0018625 -0.14834 0.0014124 
0.69176 -0.071724 -0.42426 -0.99101 -0.047279 -0.12515 0.0020666 
0.69355 -0.12404 -0.42473 -0.98579 -0.06019 -0.15684 0.0029212 
0.69238 -0.17545 -0.42294 -0.99397 0.030727 -0.1053 0.0056946 
0.68888 -0.22504 -0.424 -0.98217 0.014673 -0.18741 0.0045449 
0.69005 -0.25626 -0.42314 -0.97214 -0.16293 -0.1685 0.0018293 
0.70234 -0.28747 -0.44047 -0.99303 -0.083141 -0.083509 0.0056955 
0.70031 -0.31251 -0.39878 -0.98084 -0.10464 -0.16431 0.004931 
0.70566 -0.3225 -0.43071 -0.99698 0.013746 -0.076491 0.0060299 
0.69942 -0.35324 -0.40361 -0.99641 -0.050306 -0.068021 0.0068901 
0.70343 -0.38051 -0.42761 -0.99961 -0.027755 0.003841 0.0032111 
0.702 -0.41151 -0.41659 -0.99555 0.094105 -0.0048127 0.0013181 
0.69917 -0.43257 -0.42179 -0.99963 0.020915 -0.01739 0.0047189 
0.69758 -0.45035 -0.40204 -0.99585 0.030535 -0.08568 0.0036239 
0.69932 -0.50688 -0.40108 -0.98777 -0.037738 -0.15128 0.002166 
0.70933 -0.51295 -0.4277 -0.98972 -0.061999 -0.12892 0.003449 
0.70733 -0.45696 -0.45938 -0.99537 -0.040279 -0.087318 0.0036446 
0.69994 -0.42685 -0.4551 -0.99993 -0.0089835 -0.0071914 0.0052867 
0.70231 -0.42109 -0.46321 -0.99654 -0.025511 -0.079129 0.0031263 
0.70117 -0.39244 -0.45519 -0.99887 -0.008665 -0.046643 0.0025394 
0.69866 -0.3629 -0.46184 -0.99916 0.013725 -0.038611 0.0030721 
0.6994 -0.34783 -0.47063 -0.99913 0.014257 -0.039275 0.0030487 
0.70371 -0.32658 -0.47304 -0.99898 0.016314 -0.042217 0.002346 
0.70394 -0.27033 -0.47939 -0.99313 -0.069922 -0.09379 0.0026996 
0.7002 -0.24726 -0.478 -0.98875 -0.083782 -0.1239 0.0032665 
0.69644 -0.22089 -0.47415 -0.99513 -0.010812 -0.097961 0.0046185 
0.69754 -0.17816 -0.4734 -0.99923 0.0052791 -0.038906 0.0049274 
0.70122 -0.16899 -0.45538 -0.99868 -0.010197 -0.050411 0.0055857 
0.70122 -0.16257 -0.44336 -0.99868 -0.010197 -0.050409 0.005566 
0.70005 -0.14756 -0.44749 -0.99755 -0.056009 -0.041972 0.0049262 
0.69394 -0.12458 -0.47165 -0.99535 -0.077798 -0.056792 0.0031277 
0.69208 -0.071842 -0.47939 -0.99414 0.0041993 -0.10801 0.0016457 
0.69431 -0.021989 -0.47822 -0.99304 0.045061 -0.10886 0.011297 
0.69513 0.012441 -0.46763 -0.98258 0.081465 -0.16705 0.015998 
0.70235 0.11032 -0.49219 -0.95937 -0.08873 -0.26784 0.001281 
0.69 0.12795 -0.47373 -0.96232 -0.088765 -0.25701 0.0022967 
0.68732 0.17536 -0.47652 -0.96305 -0.097728 -0.25097 0.0026091 
0.68551 0.22408 -0.48224 -0.97752 -0.023968 -0.20948 0.00113 
0.6806 0.33466 -0.46403 -0.99409 -0.034313 -0.10303 0.003193 
0.67625 0.35873 -0.4584 -0.99403 -0.043171 -0.10025 0.0030654 
0.69559 0.20311 -0.50474 -0.97719 -0.089434 -0.19262 0.0029446 
0.69495 0.17722 -0.50586 -0.96303 -0.097729 -0.25103 0.0025965 
0.69715 0.14068 -0.50493 -0.96304 -0.097743 -0.25101 0.0025964 
0.70786 0.11743 -0.51146 -0.9654 -0.082648 -0.24733 0.00193 
0.71108 0.029414 -0.51553 -0.9708 0.047044 -0.23523 0.0078916 
0.70365 0.010225 -0.49304 -0.98258 0.081469 -0.16702 0.016005 
0.68854 0.0051844 -0.50054 -0.97155 0.096615 -0.21624 0.012982 
0.70138 -0.0028682 -0.49374 -0.9723 0.078193 -0.22028 0.015076 
0.70198 -0.012762 -0.50668 -0.9722 0.078167 -0.22072 0.015163 
0.69703 -0.031538 -0.50332 -0.97233 0.078202 -0.22014 0.015041 
0.69653 -0.071572 -0.50474 -0.98311 0.019509 -0.18199 0.0014515 
0.70063 -0.098235 -0.51192 -0.99754 -0.037459 -0.059299 0.0020035 
0.70079 -0.12194 -0.51372 -0.99704 -0.044145 -0.062925 0.0022814 
0.69786 -0.1272 -0.50774 -0.99704 -0.04416 -0.063007 0.0023256 
0.69954 -0.174 -0.50364 -0.99895 -0.010144 -0.044731 0.0020456 
0.70093 -0.17416 -0.50718 -0.99895 -0.010139 -0.044721 0.0020003 
0.69916 -0.22475 -0.50516 -0.99936 -0.03189 -0.01604 0.0022904 
0.70044 -0.23229 -0.51153 -0.99936 -0.031886 -0.015949 0.0022431 
0.70477 -0.2749 -0.50656 -0.9987 -0.035861 -0.03626 0.0019399 
0.70457 -0.32771 -0.50838 -0.99898 0.016296 -0.042142 0.0023358 
0.70773 -0.37317 -0.51603 -0.99789 -0.0013534 -0.064949 0.0016065 
3 4 19 18
3 5 17 18
3 5 4 18
3 6 24 7
3 9 8 7
3 23 9 7
3 23 24 7
3 10 11 12
3 13 11 12
3 14 15 16
3 21 30 22
3 29 30 22
3 34 31 30
3 34 29 30
3 33 32 31
3 33 34 31
3 40 33 34
3 41 33 40
3 43 42 41
3 43 40 41
3 52 53 42
3 52 43 42
3 55 52 53
3 54 53 55
3 69 54 55
3 25 27 28
3 36 35 28
3 36 27 28
3 37 36 27
3 26 37 27
3 26 25 27
3 38 39 35
3 38 36 35
3 44 45 49
3 50 51 49
3 47 50 49
3 48 47 49
3 48 45 49
3 51 49 44
3 57 50 51
3 57 50 47
3 58 57 47
3 59 58 47
3 46 59 47
3 46 48 47
3 60 61 58
3 60 59 58
3 60 46 59
3 62 58 61
3 90 62 61
3 91 90 61
3 94 91 61
3 93 94 61
3 92 93 61
3 92 60 61
3 88 89 62
3 88 90 62
3 96 88 90
3 95 96 90
3 94 95 90
3 94 91 90
3 133 95 94
3 134 133 94
3 138 134 94
3 135 138 94
3 135 93 94
3 136 135 93
3 87 96 88
3 86 87 96
3 97 86 96
3 130 97 96
3 131 130 96
3 142 131 96
3 132 142 96
3 140 132 96
3 133 140 96
3 133 95 96
3 139 140 133
3 138 139 133
3 138 134 133
3 136 137 138
3 136 135 138
3 85 87 86
3 63 85 86
3 84 63 86
3 83 84 86
3 99 83 86
3 98 99 86
3 98 97 86
3 129 98 97
3 129 130 97
3 144 129 130
3 143 144 130
3 142 143 130
3 142 131 130
3 144 143 142
3 173 144 142
3 174 173 142
3 175 174 142
3 141 175 142
3 141 132 142
3 175 141 132
3 175 140 132
3 183 175 140
3 182 183 140
3 176 182 140
3 177 176 140
3 178 177 140
3 178 139 140
3 137 178 139
3 137 138 139
3 64 63 84
3 64 84 83
3 65 64 83
3 82 65 83
3 81 82 83
3 100 81 83
3 100 99 83
3 127 100 99
3 128 127 99
3 145 128 99
3 129 145 99
3 129 98 99
3 171 145 129
3 171 144 129
3 172 171 144
3 187 172 144
3 187 173 144
3 186 187 173
3 186 174 173
3 218 186 174
3 185 218 174
3 184 185 174
3 183 184 174
3 183 175 174
3 182 184 183
3 180 182 176
3 180 177 176
3 179 180 177
3 179 178 177
3 56 64 65
3 66 82 65
3 66 82 81
3 80 66 81
3 101 80 81
3 101 100 81
3 126 101 100
3 126 127 100
3 147 126 127
3 146 147 127
3 145 146 127
3 145 128 127
3 147 146 145
3 169 147 145
3 170 169 145
3 190 170 145
3 190 171 145
3 213 190 171
3 189 213 171
3 215 189 171
3 188 215 171
3 187 188 171
3 187 172 171
3 215 188 187
3 232 215 187
3 216 232 187
3 230 216 187
3 217 230 187
3 218 217 187
3 218 186 187
3 230 217 218
3 261 230 218
3 229 261 218
3 263 229 218
3 228 263 218
3 227 228 218
3 219 227 218
3 180 219 218
3 180 182 181
3 181 180 218
3 184 181 218
3 184 185 218
3 181 182 184
3 220 219 180
3 223 220 180
3 223 179 180
3 79 66 80
3 103 79 80
3 102 103 80
3 126 102 80
3 126 101 80
3 103 102 126
3 125 103 126
3 149 125 126
3 148 149 126
3 168 148 126
3 168 147 126
3 192 168 147
3 192 169 147
3 191 192 169
3 190 191 169
3 190 170 169
3 192 191 190
3 211 192 190
3 212 211 190
3 235 212 190
3 235 213 190
3 256 235 213
3 234 256 213
3 258 234 213
3 233 258 213
3 232 233 213
3 215 232 213
3 214 215 213
3 214 189 213
3 214 215 189
3 258 233 232
3 271 258 232
3 259 271 232
3 269 259 232
3 260 269 232
3 261 260 232
3 261 230 231
3 231 261 232
3 231 216 232
3 230 231 216
3 269 260 261
3 300 269 261
3 301 300 261
3 268 301 261
3 262 268 261
3 262 229 261
3 268 262 229
3 268 263 229
3 267 268 263
3 264 267 263
3 224 264 263
3 227 224 263
3 227 228 263
3 226 224 227
3 221 226 227
3 220 221 227
3 220 219 227
3 221 223 220
3 226 221 223
3 222 226 223
3 104 103 79
3 123 104 103
3 124 123 103
3 149 124 103
3 149 125 103
3 123 124 149
3 122 123 149
3 150 122 149
3 165 150 149
3 166 165 149
3 194 166 149
3 167 194 149
3 192 167 149
3 168 192 149
3 168 148 149
3 194 167 192
3 193 194 192
3 209 193 192
3 210 209 192
3 237 210 192
3 237 211 192
3 236 237 211
3 256 236 211
3 235 256 211
3 235 212 211
3 255 236 256
3 275 255 256
3 274 275 256
3 295 274 256
3 273 295 256
3 297 273 256
3 272 297 256
3 271 272 256
3 271 258 257
3 257 271 256
3 257 234 256
3 258 257 234
3 297 272 271
3 314 297 271
3 298 314 271
3 312 298 271
3 299 312 271
3 300 299 271
3 269 300 271
3 270 269 271
3 270 259 271
3 269 270 259
3 312 299 300
3 311 312 300
3 310 311 300
3 310 301 300
3 308 310 301
3 309 308 301
3 309 268 301
3 308 309 268
3 302 308 268
3 306 302 268
3 303 306 268
3 304 303 268
3 304 267 268
3 266 304 267
3 265 266 267
3 265 264 267
3 265 224 264
3 222 226 225
3 225 222 224
3 225 226 224
3 105 78 104
3 122 105 104
3 122 123 104
3 106 105 122
3 77 106 122
3 107 77 122
3 108 107 122
3 121 108 122
3 153 121 122
3 152 153 122
3 164 152 122
3 151 164 122
3 151 150 122
3 164 151 150
3 164 165 150
3 197 164 165
3 196 197 165
3 207 196 165
3 195 207 165
3 209 195 165
3 209 193 194
3 194 209 165
3 194 166 165
3 207 195 209
3 208 207 209
3 240 208 209
3 239 240 209
3 252 239 209
3 238 252 209
3 254 238 209
3 237 254 209
3 237 210 209
3 275 254 237
3 255 275 237
3 255 236 237
3 253 254 275
3 276 253 275
3 293 276 275
3 294 293 275
3 295 294 275
3 295 274 275
3 293 294 295
3 318 293 295
3 317 318 295
3 345 317 295
3 316 345 295
3 347 316 295
3 315 347 295
3 314 315 295
3 297 314 295
3 296 297 295
3 296 273 295
3 297 296 273
3 347 315 314
3 348 347 314
3 360 348 314
3 359 360 314
3 349 359 314
3 312 349 314
3 312 298 313
3 313 312 314
3 313 298 314
3 350 349 312
3 356 350 312
3 351 356 312
3 351 311 312
3 356 351 311
3 355 356 311
3 352 355 311
3 352 310 311
3 352 308 310
3 307 352 308
3 307 302 308
3 353 307 302
3 354 353 302
3 354 306 302
3 305 303 306
3 305 304 303
3 106 77 78
3 106 105 78
3 108 109 77
3 108 107 77
3 76 109 108
3 75 76 108
3 111 75 108
3 110 111 108
3 119 110 108
3 120 119 108
3 120 121 108
3 154 120 121
3 154 153 121
3 155 154 153
3 162 155 153
3 163 162 153
3 164 163 153
3 164 152 153
3 162 163 164
3 198 162 164
3 198 197 164
3 205 198 197
3 206 205 197
3 240 206 197
3 240 208 207
3 207 240 197
3 207 196 197
3 205 206 240
3 241 205 240
3 249 241 240
3 250 249 240
3 251 250 240
3 252 251 240
3 252 239 240
3 278 251 252
3 291 278 252
3 277 291 252
3 276 277 252
3 253 276 252
3 253 238 252
3 253 254 238
3 291 277 276
3 292 291 276
3 292 293 276
3 291 292 293
3 320 291 293
3 319 320 293
3 340 319 293
3 340 318 293
3 341 340 318
3 342 341 318
3 343 342 318
3 344 343 318
3 344 317 318
3 344 345 317
3 343 344 345
3 342 343 345
3 341 342 345
3 369 341 345
3 368 369 345
3 366 368 345
3 365 366 345
3 346 365 345
3 346 316 345
3 365 346 316
3 364 365 316
3 364 347 316
3 363 364 347
3 362 363 347
3 360 362 347
3 360 348 347
3 363 362 360
3 361 363 360
3 361 359 360
3 363 361 359
3 364 363 359
3 358 359 349
3 357 358 349
3 357 350 349
3 357 356 350
3 358 357 356
3 353 352 307
3 74 67 75
3 73 74 75
3 113 73 75
3 112 113 75
3 112 111 75
3 118 112 111
3 119 118 111
3 119 110 111
3 117 118 119
3 154 117 119
3 154 120 119
3 117 155 154
3 114 117 155
3 116 114 155
3 157 116 155
3 156 157 155
3 159 156 155
3 160 159 155
3 200 160 155
3 161 200 155
3 198 161 155
3 198 162 155
3 199 161 198
3 203 199 198
3 204 203 198
3 243 204 198
3 243 205 198
3 248 243 205
3 242 248 205
3 249 242 205
3 249 241 205
3 248 242 249
3 281 248 249
3 280 281 249
3 279 280 249
3 279 250 249
3 278 279 250
3 278 251 250
3 290 279 278
3 322 290 278
3 322 291 278
3 323 322 291
3 321 323 291
3 321 320 291
3 338 321 320
3 339 338 320
3 340 339 320
3 340 319 320
3 373 339 340
3 371 373 340
3 371 341 340
3 371 369 341
3 370 371 369
3 370 368 369
3 367 366 368
3 73 72 67
3 73 74 67
3 114 72 73
3 114 117 113
3 114 113 73
3 112 117 113
3 118 117 112
3 70 72 114
3 115 70 114
3 115 116 114
3 115 157 116
3 159 158 157
3 159 156 157
3 200 201 159
3 200 160 159
3 202 201 200
3 203 202 200
3 199 203 200
3 199 161 200
3 245 202 203
3 244 245 203
3 244 204 203
3 247 244 204
3 247 243 204
3 247 248 243
3 283 247 248
3 282 283 248
3 285 282 248
3 285 281 248
3 286 285 281
3 287 286 281
3 288 287 281
3 289 288 281
3 279 289 281
3 279 280 281
3 324 289 279
3 324 290 279
3 323 324 290
3 323 322 290
3 288 324 323
3 288 289 324
3 325 288 323
3 334 325 323
3 335 334 323
3 336 335 323
3 337 336 323
3 338 337 323
3 338 321 323
3 373 337 338
3 373 339 338
3 374 337 373
3 372 371 373
3 71 72 70
3 68 71 70
3 247 246 245
3 247 244 245
3 246 283 247
3 285 283 282
3 284 283 285
3 329 284 285
3 330 329 285
3 328 330 285
3 326 328 285
3 287 326 285
3 287 286 285
3 326 288 287
3 325 326 288
3 327 326 325
3 332 327 325
3 333 332 325
3 333 334 325
3 375 333 334
3 375 335 334
3 336 375 335
3 374 375 336
3 374 337 336
3 331 328 330
3 332 331 328
3 327 332 328
3 327 326 328
3 333 331 332
3 331 333 375
